# xmcd
#
# Track frame offsets:
#	150
#	13105
#	23990
#	36385
#	49625
#	63275
#	74292
#	87922
#	100045
#	113127
#	124350
#	136797
#	150402
#	162550
#	175082
#	188272
#	202365
#	213925
#	226395
#	240100
#	252162
#	264672
#	278002
#
# Disc length: 3878 seconds
#
# Revision: 1
# Processed by: cddbd v1.5PL3 Copyright (c) Steve Scherf et al.
# Submitted via: audiograbber 1.82.02
#
DISCID=370f2417
DTITLE=Blind Lemon Jefferson - Squeeze My Lemon
DYEAR=1997
DGENRE=Blues
TTITLE0=Bad Luck Blues
TTITLE1=Change My Luck Blues
TTITLE2=Sunshine Special
TTITLE3=Easy Rider Blues
TTITLE4=Broke and Hungry
TTITLE5=Lonesome House Blues
TTITLE6=Black Snake Moan
TTITLE7=That Crawling Baby Blues
TTITLE8=Right of Way Blues
TTITLE9=Rising High Water Blues
TTITLE10=Jack O'Diamonds Blues
TTITLE11=Matchbox Blues
TTITLE12=Chock House Blues
TTITLE13=One Dime Blues
TTITLE14=Rabbit Foot Blues
TTITLE15=Stocking Feet Blues
TTITLE16=Teddy Bear Blues
TTITLE17=Prison Cell Blues
TTITLE18=Hangman's Blues
TTITLE19=Blind Lemon's Penitentiary Blues
TTITLE20=He Arose From the Dead
TTITLE21=Hot Dog
TTITLE22=See That My Grave is Kept Clean
EXTD=
EXTT0=
EXTT1=
EXTT2=
EXTT3=
EXTT4=
EXTT5=
EXTT6=
EXTT7=
EXTT8=
EXTT9=
EXTT10=
EXTT11=
EXTT12=
EXTT13=
EXTT14=
EXTT15=
EXTT16=
EXTT17=
EXTT18=
EXTT19=
EXTT20=
EXTT21=
EXTT22=
PLAYORDER=
